<svg width="146" height="143" xmlns="http://www.w3.org/2000/svg" xmlns:xlink="http://www.w3.org/1999/xlink" overflow="hidden"><defs><clipPath id="clip0"><rect x="125" y="327" width="146" height="143"/></clipPath><clipPath id="clip1"><rect x="126" y="328" width="145" height="141"/></clipPath><clipPath id="clip2"><rect x="126" y="328" width="145" height="141"/></clipPath></defs><g clip-path="url(#clip0)" transform="translate(-125 -327)"><g clip-path="url(#clip1)"><g clip-path="url(#clip2)"><g><path d="M72.8224 38.2409C76.4352 38.2409 79.3656 41.1741 79.3656 44.784L79.3656 69.0848 81.9474 69.0848 81.9474 52.6151C81.9474 49.0023 84.8806 46.072 88.4905 46.072 92.1033 46.072 95.0336 49.0052 95.0336 52.6151L95.0336 75.8472 97.6605 75.8472 97.6605 61.9158C97.6605 58.3044 100.594 55.3726 104.204 55.3726 107.815 55.3726 110.747 58.3059 110.747 63.8746L110.747 103.942C110.739 120.972 93.7761 137.944 72.8181 137.95 51.8658 137.944 34.9039 120.98 34.8894 100.022L34.8459 100.022 34.8894 58.1795C34.8894 52.605 34.9257 51.6364 38.54 51.6364 44.8697 51.6364 47.9321 57.4172 47.9321 61.0285L47.9321 78.8341 50.559 78.8341 50.559 21.2746C50.559 17.6618 53.4922 14.7315 57.1021 14.7315 60.7163 14.7315 63.6452 17.6647 63.6452 21.2746L63.6452 69.0818 66.272 69.0818 66.272 44.7811C66.2706 41.1712 69.2053 38.238 72.8152 38.238" fill="#ED7D31" transform="matrix(1.00459 0 0 1 126 328)"/><path d="M57.1253 6.38049C48.7482 6.40808 42.2603 13.5596 42.1804 21.3704 42.1978 25.9373 44.6272 29.8841 48.0773 33.2544L48.0773 21.3704C47.9902 16.3927 52.1083 12.2832 57.1253 12.2774 62.1423 12.2818 66.304 16.3927 66.2183 21.3704L66.2183 33.2544C69.667 29.8855 72.0557 25.9358 72.0703 21.3704 71.9918 13.5596 65.5024 6.40808 57.1253 6.38049" fill="#ED7D31" transform="matrix(1.00459 0 0 1 126 328)"/><text fill="#ED7D31" font-family="Arial,Arial_MSFontService,sans-serif" font-weight="700" font-size="5" transform="matrix(1.45875 0 0 1.45209 126 495)">Created by Magicon</text><text fill="#ED7D31" font-family="Arial,Arial_MSFontService,sans-serif" font-weight="700" font-size="5" transform="matrix(1.45875 0 0 1.45209 126 502)">from the Noun Project</text></g></g></g></g></svg>